<svg width="93" height="33" viewBox="0 0 93 33" fill="none" xmlns="http://www.w3.org/2000/svg">
<path d="M27.776 10.52C27.776 12.3333 27.136 13.9013 25.856 15.224C24.576 16.5253 22.7093 17.464 20.256 18.04C21.5787 18.4027 22.5813 19 23.264 19.832C23.9467 20.6427 24.288 21.5813 24.288 22.648C24.288 24.3333 23.7547 25.7947 22.688 27.032C21.6427 28.2693 20.1067 29.2293 18.08 29.912C16.0533 30.5733 13.6107 30.904 10.752 30.904C9.68533 30.904 8.832 30.872 8.192 30.808C8.17067 31.4053 7.91467 31.8533 7.424 32.152C6.93333 32.4507 6.304 32.6 5.536 32.6C4.768 32.6 4.23467 32.4293 3.936 32.088C3.65867 31.7467 3.54133 31.2453 3.584 30.584C3.776 27.5973 4.14933 24.472 4.704 21.208C5.25867 17.9227 5.96267 14.7547 6.816 11.704C6.96533 11.1707 7.264 10.7973 7.712 10.584C8.16 10.3707 8.74667 10.264 9.472 10.264C10.7733 10.264 11.424 10.6267 11.424 11.352C11.424 11.6507 11.36 11.992 11.232 12.376C10.6773 14.04 10.1227 16.3013 9.568 19.16C9.01333 21.9973 8.61867 24.7067 8.384 27.288C9.408 27.3733 10.24 27.416 10.88 27.416C13.8667 27.416 16.0533 26.9893 17.44 26.136C18.848 25.2613 19.552 24.152 19.552 22.808C19.552 21.8693 19.1467 21.08 18.336 20.44C17.5467 19.8 16.2133 19.448 14.336 19.384C13.9093 19.3627 13.6107 19.256 13.44 19.064C13.2693 18.872 13.184 18.5627 13.184 18.136C13.184 17.5173 13.312 17.016 13.568 16.632C13.824 16.248 14.2933 16.0453 14.976 16.024C16.4907 15.9813 17.856 15.7573 19.072 15.352C20.3093 14.9467 21.28 14.3813 21.984 13.656C22.688 12.9093 23.04 12.0453 23.04 11.064C23.04 9.82667 22.432 8.856 21.216 8.152C20 7.42667 18.1333 7.064 15.616 7.064C13.3333 7.064 11.1253 7.36267 8.992 7.96C6.85867 8.536 5.04533 9.272 3.552 10.168C2.86933 10.5733 2.29333 10.776 1.824 10.776C1.44 10.776 1.14133 10.648 0.928 10.392C0.736 10.1147 0.64 9.77333 0.64 9.368C0.64 8.83467 0.746667 8.376 0.96 7.992C1.19467 7.608 1.73867 7.17067 2.592 6.68C4.384 5.656 6.48533 4.856 8.896 4.28C11.3067 3.704 13.7707 3.416 16.288 3.416C20.1493 3.416 23.0293 4.06667 24.928 5.368C26.8267 6.66933 27.776 8.38667 27.776 10.52ZM43.1998 21.176C43.4771 21.176 43.6904 21.3147 43.8398 21.592C43.9891 21.8693 44.0638 22.2213 44.0638 22.648C44.0638 23.672 43.7544 24.28 43.1358 24.472C41.8558 24.92 40.4478 25.176 38.9118 25.24C38.5064 27.032 37.7064 28.472 36.5118 29.56C35.3171 30.6267 33.9624 31.16 32.4478 31.16C31.1678 31.16 30.0691 30.8507 29.1518 30.232C28.2558 29.6133 27.5731 28.792 27.1038 27.768C26.6344 26.744 26.3997 25.6347 26.3997 24.44C26.3997 22.8187 26.7091 21.3787 27.3278 20.12C27.9464 18.84 28.7998 17.848 29.8878 17.144C30.9758 16.4187 32.1811 16.056 33.5038 16.056C35.1251 16.056 36.4264 16.6213 37.4078 17.752C38.4104 18.8613 38.9971 20.2373 39.1678 21.88C40.1704 21.816 41.3651 21.6027 42.7518 21.24C42.9224 21.1973 43.0718 21.176 43.1998 21.176ZM32.7038 27.768C33.3864 27.768 33.9731 27.4907 34.4638 26.936C34.9758 26.3813 35.3171 25.5813 35.4878 24.536C34.8264 24.088 34.3144 23.5013 33.9518 22.776C33.6104 22.0507 33.4398 21.2827 33.4398 20.472C33.4398 20.1307 33.4718 19.7893 33.5358 19.448H33.3758C32.5224 19.448 31.8078 19.864 31.2318 20.696C30.6771 21.5067 30.3998 22.6587 30.3998 24.152C30.3998 25.3253 30.6238 26.2213 31.0718 26.84C31.5411 27.4587 32.0851 27.768 32.7038 27.768ZM57.6373 21.176C57.9146 21.176 58.1279 21.3147 58.2773 21.592C58.4266 21.8693 58.5013 22.2213 58.5013 22.648C58.5013 23.672 58.1919 24.28 57.5733 24.472C56.2933 24.92 54.8853 25.176 53.3493 25.24C52.9439 27.032 52.1439 28.472 50.9493 29.56C49.7546 30.6267 48.3999 31.16 46.8853 31.16C45.6053 31.16 44.5066 30.8507 43.5893 30.232C42.6933 29.6133 42.0106 28.792 41.5413 27.768C41.0719 26.744 40.8372 25.6347 40.8372 24.44C40.8372 22.8187 41.1466 21.3787 41.7653 20.12C42.3839 18.84 43.2373 17.848 44.3253 17.144C45.4133 16.4187 46.6186 16.056 47.9413 16.056C49.5626 16.056 50.8639 16.6213 51.8453 17.752C52.8479 18.8613 53.4346 20.2373 53.6053 21.88C54.6079 21.816 55.8026 21.6027 57.1893 21.24C57.3599 21.1973 57.5093 21.176 57.6373 21.176ZM47.1413 27.768C47.8239 27.768 48.4106 27.4907 48.9013 26.936C49.4133 26.3813 49.7546 25.5813 49.9253 24.536C49.2639 24.088 48.7519 23.5013 48.3893 22.776C48.0479 22.0507 47.8773 21.2827 47.8773 20.472C47.8773 20.1307 47.9093 19.7893 47.9733 19.448H47.8133C46.9599 19.448 46.2453 19.864 45.6693 20.696C45.1146 21.5067 44.8373 22.6587 44.8373 24.152C44.8373 25.3253 45.0613 26.2213 45.5093 26.84C45.9786 27.4587 46.5226 27.768 47.1413 27.768ZM74.2508 23.864C74.5281 23.864 74.7414 23.992 74.8908 24.248C75.0614 24.504 75.1468 24.856 75.1468 25.304C75.1468 26.1573 74.9441 26.8187 74.5388 27.288C73.5788 28.4613 72.6081 29.4 71.6268 30.104C70.6454 30.808 69.4828 31.16 68.1388 31.16C66.4961 31.16 65.1734 30.6907 64.1708 29.752C63.1681 28.8133 62.6667 27.5653 62.6667 26.008C62.6667 25.176 63.0934 24.5787 63.9468 24.216C64.8854 23.8107 65.5574 23.384 65.9628 22.936C66.3681 22.4667 66.5708 21.9013 66.5708 21.24C66.5708 20.856 66.4854 20.568 66.3148 20.376C66.1654 20.184 65.9734 20.088 65.7388 20.088C65.1628 20.088 64.5228 20.504 63.8188 21.336C63.1361 22.168 62.4961 23.2453 61.8988 24.568C61.3014 25.8693 60.8321 27.2133 60.4908 28.6C60.2561 29.6027 59.9788 30.2853 59.6588 30.648C59.3601 30.9893 58.8801 31.16 58.2188 31.16C57.5574 31.16 57.0668 30.9253 56.7468 30.456C56.4481 29.9653 56.2454 29.2187 56.1388 28.216C56.0321 27.2133 55.9788 25.7413 55.9788 23.8C55.9788 20.5147 56.3094 17.0907 56.9708 13.528C57.6534 9.96533 58.6454 6.97867 59.9468 4.568C61.2694 2.136 62.8481 0.919998 64.6828 0.919998C65.6641 0.919998 66.4534 1.34667 67.0508 2.2C67.6694 3.032 67.9788 4.12 67.9788 5.464C67.9788 7.61867 67.3494 9.85867 66.0908 12.184C64.8321 14.488 62.7841 17.1867 59.9468 20.28C59.8828 21.3893 59.8508 22.5307 59.8508 23.704C60.8748 21.0373 62.0481 19.1067 63.3708 17.912C64.6934 16.696 65.9308 16.088 67.0828 16.088C68.1494 16.088 69.0028 16.4507 69.6428 17.176C70.3041 17.9013 70.6348 18.7973 70.6348 19.864C70.6348 21.0373 70.3361 22.1147 69.7388 23.096C69.1414 24.0773 68.1174 24.952 66.6668 25.72C66.7521 26.296 67.0081 26.7653 67.4348 27.128C67.8828 27.4693 68.4161 27.64 69.0348 27.64C69.6961 27.64 70.3361 27.384 70.9548 26.872C71.5734 26.36 72.3841 25.5067 73.3868 24.312C73.6428 24.0133 73.9308 23.864 74.2508 23.864ZM64.0108 4.088C63.6268 4.088 63.2001 4.64267 62.7308 5.752C62.2614 6.84 61.8028 8.32267 61.3548 10.2C60.9281 12.056 60.5761 14.0827 60.2988 16.28C61.6214 14.7227 62.7094 13.0267 63.5628 11.192C64.4374 9.35733 64.8748 7.69333 64.8748 6.2C64.8748 5.51733 64.8001 4.99467 64.6508 4.632C64.5014 4.26933 64.2881 4.088 64.0108 4.088ZM76.7593 13.976C75.8633 13.976 75.1913 13.7733 74.7433 13.368C74.2953 12.9413 74.0713 12.3547 74.0713 11.608C74.0713 10.8613 74.3593 10.2427 74.9353 9.752C75.5326 9.24 76.2686 8.984 77.1433 8.984C77.9326 8.984 78.5726 9.176 79.0633 9.56C79.5539 9.944 79.7993 10.488 79.7993 11.192C79.7993 12.0453 79.5219 12.728 78.9673 13.24C78.4126 13.7307 77.6766 13.976 76.7593 13.976ZM76.5033 31.16C75.1166 31.16 74.1033 30.6693 73.4633 29.688C72.8446 28.7067 72.5353 27.4053 72.5353 25.784C72.5353 24.824 72.6526 23.5973 72.8873 22.104C73.1433 20.5893 73.4633 19.1813 73.8473 17.88C74.0393 17.1973 74.2953 16.728 74.6153 16.472C74.9353 16.216 75.4473 16.088 76.1513 16.088C77.2393 16.088 77.7833 16.4507 77.7833 17.176C77.7833 17.7093 77.5806 18.9467 77.1753 20.888C76.6633 23.2347 76.4073 24.824 76.4073 25.656C76.4073 26.296 76.4926 26.7867 76.6633 27.128C76.8339 27.4693 77.1219 27.64 77.5273 27.64C77.9113 27.64 78.3913 27.3733 78.9673 26.84C79.5433 26.3067 80.3113 25.464 81.2713 24.312C81.5273 24.0133 81.8153 23.864 82.1353 23.864C82.4126 23.864 82.6259 23.992 82.7753 24.248C82.9459 24.504 83.0313 24.856 83.0313 25.304C83.0313 26.1573 82.8286 26.8187 82.4233 27.288C80.3113 29.8693 78.3379 31.16 76.5033 31.16ZM91.8983 24.824C92.1756 24.824 92.3889 24.952 92.5383 25.208C92.7089 25.464 92.7943 25.816 92.7943 26.264C92.7943 27.032 92.6129 27.6933 92.2503 28.248C91.6529 29.1653 90.8636 29.88 89.8823 30.392C88.9223 30.904 87.7703 31.16 86.4263 31.16C84.3783 31.16 82.7889 30.552 81.6583 29.336C80.5276 28.0987 79.9622 26.4347 79.9622 24.344C79.9622 22.872 80.2716 21.5067 80.8903 20.248C81.5089 18.968 82.3623 17.9547 83.4503 17.208C84.5596 16.4613 85.8076 16.088 87.1943 16.088C88.4316 16.088 89.4236 16.4613 90.1703 17.208C90.9169 17.9333 91.2903 18.9253 91.2903 20.184C91.2903 21.656 90.7569 22.9253 89.6903 23.992C88.6449 25.0373 86.8529 25.8693 84.3143 26.488C84.8263 27.4693 85.6903 27.96 86.9062 27.96C87.7809 27.96 88.4956 27.7573 89.0503 27.352C89.6263 26.9467 90.2876 26.264 91.0343 25.304C91.2903 24.984 91.5783 24.824 91.8983 24.824ZM86.6503 19.224C85.8609 19.224 85.1889 19.6827 84.6343 20.6C84.1009 21.5173 83.8343 22.6267 83.8343 23.928V23.992C85.0929 23.6933 86.0849 23.2453 86.8103 22.648C87.5356 22.0507 87.8983 21.3573 87.8983 20.568C87.8983 20.1627 87.7809 19.8427 87.5463 19.608C87.3329 19.352 87.0343 19.224 86.6503 19.224Z" fill="#130F26"/>
</svg>
