<svg width="20" height="20" viewBox="0 0 20 20" fill="none" xmlns="http://www.w3.org/2000/svg">
<mask id="path-1-inside-1_15_3584" fill="white">
<path fill-rule="evenodd" clip-rule="evenodd" d="M2.50192 8.75673C2.50192 7.09785 3.16091 5.50691 4.33391 4.33391C5.50692 3.16091 7.09785 2.50192 8.75673 2.50192C10.4156 2.50192 12.0065 3.16091 13.1795 4.33391C14.3525 5.50691 15.0115 7.09785 15.0115 8.75673C15.0115 10.4156 14.3525 12.0065 13.1795 13.1795C12.0065 14.3525 10.4156 15.0115 8.75673 15.0115C7.09785 15.0115 5.50692 14.3525 4.33391 13.1795C3.16091 12.0065 2.50192 10.4156 2.50192 8.75673ZM8.75673 0C7.36921 0 6.00155 0.329719 4.76646 0.961985C3.53136 1.59425 2.4642 2.51096 1.6529 3.63658C0.841605 4.76219 0.309402 6.06448 0.100152 7.43614C-0.109098 8.80779 0.0105952 10.2095 0.449367 11.5258C0.88814 12.8422 1.63343 14.0354 2.62382 15.0071C3.61421 15.9789 4.82135 16.7014 6.14575 17.1151C7.47016 17.5289 8.87392 17.6219 10.2414 17.3867C11.6088 17.1514 12.9007 16.5946 14.0108 15.7621C14.0463 15.8094 14.0852 15.8542 14.1271 15.896L17.88 19.6488C18.1159 19.8767 18.4319 20.0028 18.7599 20C19.0879 19.9971 19.4017 19.8655 19.6336 19.6336C19.8655 19.4017 19.9971 19.0879 20 18.7599C20.0028 18.4319 19.8767 18.1159 19.6488 17.88L15.896 14.1271C15.8542 14.0852 15.8094 14.0463 15.7621 14.0108C16.7378 12.7098 17.332 11.1628 17.4781 9.54313C17.6241 7.92347 17.3162 6.29514 16.589 4.8406C15.8617 3.38606 14.7438 2.16277 13.3604 1.30781C11.9771 0.452851 10.383 0 8.75673 0Z"/>
</mask>
<path fill-rule="evenodd" clip-rule="evenodd" d="M2.50192 8.75673C2.50192 7.09785 3.16091 5.50691 4.33391 4.33391C5.50692 3.16091 7.09785 2.50192 8.75673 2.50192C10.4156 2.50192 12.0065 3.16091 13.1795 4.33391C14.3525 5.50691 15.0115 7.09785 15.0115 8.75673C15.0115 10.4156 14.3525 12.0065 13.1795 13.1795C12.0065 14.3525 10.4156 15.0115 8.75673 15.0115C7.09785 15.0115 5.50692 14.3525 4.33391 13.1795C3.16091 12.0065 2.50192 10.4156 2.50192 8.75673ZM8.75673 0C7.36921 0 6.00155 0.329719 4.76646 0.961985C3.53136 1.59425 2.4642 2.51096 1.6529 3.63658C0.841605 4.76219 0.309402 6.06448 0.100152 7.43614C-0.109098 8.80779 0.0105952 10.2095 0.449367 11.5258C0.88814 12.8422 1.63343 14.0354 2.62382 15.0071C3.61421 15.9789 4.82135 16.7014 6.14575 17.1151C7.47016 17.5289 8.87392 17.6219 10.2414 17.3867C11.6088 17.1514 12.9007 16.5946 14.0108 15.7621C14.0463 15.8094 14.0852 15.8542 14.1271 15.896L17.88 19.6488C18.1159 19.8767 18.4319 20.0028 18.7599 20C19.0879 19.9971 19.4017 19.8655 19.6336 19.6336C19.8655 19.4017 19.9971 19.0879 20 18.7599C20.0028 18.4319 19.8767 18.1159 19.6488 17.88L15.896 14.1271C15.8542 14.0852 15.8094 14.0463 15.7621 14.0108C16.7378 12.7098 17.332 11.1628 17.4781 9.54313C17.6241 7.92347 17.3162 6.29514 16.589 4.8406C15.8617 3.38606 14.7438 2.16277 13.3604 1.30781C11.9771 0.452851 10.383 0 8.75673 0Z" fill="#929292"/>
<path d="M2.50192 8.75673H-0.498077H2.50192ZM8.75673 2.50192V-0.498079V2.50192ZM15.0115 8.75673H18.0115H15.0115ZM8.75673 15.0115V18.0115V15.0115ZM8.75673 0V3V0ZM14.0108 15.7621L16.409 13.9597L14.6084 11.5639L12.2108 13.3621L14.0108 15.7621ZM14.1271 15.896L16.2484 13.7746L16.246 13.7722L14.1271 15.896ZM17.88 19.6488L15.7587 21.7702L15.7771 21.7886L15.7958 21.8067L17.88 19.6488ZM19.6488 17.88L21.8067 15.7958L21.7886 15.7771L21.7702 15.7587L19.6488 17.88ZM15.896 14.1271L13.7722 16.246L13.7746 16.2484L15.896 14.1271ZM15.7621 14.0108L13.3621 12.2108L11.5639 14.6084L13.9597 16.409L15.7621 14.0108ZM5.50192 8.75673C5.50192 7.8935 5.84484 7.06563 6.45523 6.45523L2.21259 2.21259C0.476979 3.9482 -0.498077 6.3022 -0.498077 8.75673H5.50192ZM6.45523 6.45523C7.06563 5.84484 7.8935 5.50192 8.75673 5.50192V-0.498079C6.3022 -0.498079 3.9482 0.476978 2.21259 2.21259L6.45523 6.45523ZM8.75673 5.50192C9.61995 5.50192 10.4478 5.84484 11.0582 6.45523L15.3009 2.21259C13.5652 0.476978 11.2113 -0.498079 8.75673 -0.498079V5.50192ZM11.0582 6.45523C11.6686 7.06563 12.0115 7.8935 12.0115 8.75673H18.0115C18.0115 6.3022 17.0365 3.9482 15.3009 2.21259L11.0582 6.45523ZM12.0115 8.75673C12.0115 9.61995 11.6686 10.4478 11.0582 11.0582L15.3009 15.3009C17.0365 13.5652 18.0115 11.2113 18.0115 8.75673H12.0115ZM11.0582 11.0582C10.4478 11.6686 9.61995 12.0115 8.75673 12.0115V18.0115C11.2113 18.0115 13.5652 17.0365 15.3009 15.3009L11.0582 11.0582ZM8.75673 12.0115C7.8935 12.0115 7.06563 11.6686 6.45523 11.0582L2.21259 15.3009C3.9482 17.0365 6.3022 18.0115 8.75673 18.0115V12.0115ZM6.45523 11.0582C5.84484 10.4478 5.50192 9.61995 5.50192 8.75673H-0.498077C-0.498077 11.2113 0.476979 13.5652 2.21259 15.3009L6.45523 11.0582ZM8.75673 -3C6.89385 -3 5.05764 -2.55732 3.39941 -1.70845L6.1335 3.63241C6.94545 3.21676 7.84456 3 8.75673 3V-3ZM3.39941 -1.70845C1.74119 -0.859569 0.308417 0.371204 -0.780825 1.88245L4.08663 5.39071C4.61998 4.65072 5.32154 4.04807 6.1335 3.63241L3.39941 -1.70845ZM-0.780825 1.88245C-1.87007 3.39369 -2.5846 5.14214 -2.86554 6.98371L3.06584 7.88856C3.2034 6.98683 3.55328 6.13069 4.08663 5.39071L-0.780825 1.88245ZM-2.86554 6.98371C-3.14647 8.82528 -2.98578 10.7072 -2.39668 12.4745L3.29542 10.5772C3.00697 9.71181 2.92828 8.79029 3.06584 7.88856L-2.86554 6.98371ZM-2.39668 12.4745C-1.80759 14.2418 -0.806967 15.8438 0.522725 17.1485L4.72492 12.8658C4.07383 12.2269 3.58387 11.4425 3.29542 10.5772L-2.39668 12.4745ZM0.522725 17.1485C1.85242 18.4532 3.47311 19.4232 5.25125 19.9787L7.04026 14.2516C6.16958 13.9796 5.37601 13.5046 4.72492 12.8658L0.522725 17.1485ZM5.25125 19.9787C7.02939 20.5341 8.91407 20.6591 10.75 20.3432L9.73273 14.4301C8.83377 14.5848 7.91093 14.5236 7.04026 14.2516L5.25125 19.9787ZM10.75 20.3432C12.5859 20.0274 14.3205 19.2798 15.8108 18.1621L12.2108 13.3621C11.481 13.9094 10.6317 14.2755 9.73273 14.4301L10.75 20.3432ZM11.6126 17.5645C11.7335 17.7254 11.8657 17.8775 12.0082 18.0197L16.246 13.7722C16.3047 13.8308 16.3591 13.8934 16.409 13.9597L11.6126 17.5645ZM12.0058 18.0173L15.7587 21.7702L20.0013 17.5275L16.2484 13.7746L12.0058 18.0173ZM15.7958 21.8067C16.5976 22.5811 17.6714 23.0095 18.786 22.9998L18.7338 17.0001C19.1924 16.9961 19.6342 17.1724 19.9641 17.491L15.7958 21.8067ZM18.786 22.9998C19.9006 22.9902 20.9668 22.5431 21.7549 21.7549L17.5123 17.5123C17.8366 17.188 18.2752 17.004 18.7338 17.0001L18.786 22.9998ZM21.7549 21.7549C22.5431 20.9668 22.9902 19.9006 22.9998 18.786L17.0001 18.7338C17.0041 18.2752 17.188 17.8366 17.5123 17.5123L21.7549 21.7549ZM22.9998 18.786C23.0095 17.6714 22.5811 16.5976 21.8067 15.7958L17.491 19.9641C17.1724 19.6342 16.9961 19.1924 17.0001 18.7338L22.9998 18.786ZM21.7702 15.7587L18.0173 12.0058L13.7746 16.2484L17.5275 20.0013L21.7702 15.7587ZM18.0197 12.0082C17.8775 11.8657 17.7254 11.7335 17.5645 11.6126L13.9597 16.409C13.8934 16.3591 13.8308 16.3047 13.7722 16.246L18.0197 12.0082ZM18.1621 15.8108C19.4721 14.0641 20.2699 11.9871 20.4659 9.81254L14.4902 9.27371C14.3942 10.3385 14.0036 11.3555 13.3621 12.2108L18.1621 15.8108ZM20.4659 9.81254C20.662 7.638 20.2487 5.45182 19.2723 3.49896L13.9057 6.18224C14.3838 7.13846 14.5862 8.20894 14.4902 9.27371L20.4659 9.81254ZM19.2723 3.49896C18.2958 1.5461 16.7949 -0.0962801 14.9376 -1.24414L11.7832 3.85976C12.6926 4.42182 13.4276 5.22601 13.9057 6.18224L19.2723 3.49896ZM14.9376 -1.24414C13.0803 -2.39201 10.9401 -3 8.75673 -3V3C9.82582 3 10.8738 3.29771 11.7832 3.85976L14.9376 -1.24414Z" fill="black" mask="url(#path-1-inside-1_15_3584)"/>
</svg>
