<svg width="16" height="20" viewBox="0 0 18 22" fill="none" xmlns="http://www.w3.org/2000/svg">
<path fill-rule="evenodd" clip-rule="evenodd" d="M8.86495 20.7075C4.62277 20.7075 1 20.0976 1 17.6552C1 15.213 4.59979 12.9583 8.86495 12.9583C13.1073 12.9583 16.73 15.1911 16.73 17.6335C16.73 20.0748 13.1303 20.7075 8.86495 20.7075Z" stroke="#130F26" stroke-width="2" stroke-linecap="round" stroke-linejoin="round"/>
<path fill-rule="evenodd" clip-rule="evenodd" d="M8.80789 10.0402C11.3043 10.0402 13.3276 8.01693 13.3276 5.5206C13.3276 3.02425 11.3043 1 8.80789 1C6.31161 1 4.28738 3.02425 4.28738 5.5206C4.27895 8.00851 6.2882 10.0319 8.77605 10.0402C8.78728 10.0402 8.79759 10.0402 8.80789 10.0402Z" stroke="#130F26" stroke-width="2" stroke-linecap="round" stroke-linejoin="round"/>
</svg>
